<svg width="12" height="12" viewBox="0 0 12 12" fill="none" xmlns="http://www.w3.org/2000/svg">
<path d="M5.9999 0.337402C2.86865 0.337402 0.337402 2.86865 0.337402 5.9999C0.337402 9.13115 2.86865 11.6812 5.9999 11.6812C9.13115 11.6812 11.6812 9.13115 11.6812 5.9999C11.6812 2.86865 9.13115 0.337402 5.9999 0.337402ZM5.9999 10.8374C3.3374 10.8374 1.18115 8.6624 1.18115 5.9999C1.18115 3.3374 3.3374 1.18115 5.9999 1.18115C8.6624 1.18115 10.8374 3.35615 10.8374 6.01865C10.8374 8.6624 8.6624 10.8374 5.9999 10.8374Z" fill="currentColor"/>
<path d="M7.72471 4.2562C7.55596 4.08745 7.29346 4.08745 7.12471 4.2562L5.99971 5.39995L4.85596 4.2562C4.68721 4.08745 4.42471 4.08745 4.25596 4.2562C4.08721 4.42495 4.08721 4.68745 4.25596 4.8562L5.39971 5.99995L4.25596 7.1437C4.08721 7.31245 4.08721 7.57495 4.25596 7.7437C4.33096 7.8187 4.44346 7.87495 4.55596 7.87495C4.66846 7.87495 4.78096 7.83745 4.85596 7.7437L5.99971 6.59995L7.14346 7.7437C7.21846 7.8187 7.33096 7.87495 7.44346 7.87495C7.55596 7.87495 7.66846 7.83745 7.74346 7.7437C7.91221 7.57495 7.91221 7.31245 7.74346 7.1437L6.59971 5.99995L7.74346 4.8562C7.89346 4.68745 7.89346 4.42495 7.72471 4.2562Z" fill="currentColor"/>
</svg>
